<?xml version="1.0" encoding="utf-8"?>
<!-- Generator: Adobe Illustrator 25.2.1, SVG Export Plug-In . SVG Version: 6.00 Build 0)  -->
<svg version="1.1" id="Capa_1" xmlns="http://www.w3.org/2000/svg" xmlns:xlink="http://www.w3.org/1999/xlink" x="0px" y="0px"
	 viewBox="0 0 700 700" style="enable-background:new 0 0 700 700;" xml:space="preserve">
<path d="M122.1,291c8.4,21.3,19.6,40.9,33,58.2c6.7,9,14,16.8,21.8,25.2l11.8,11.8c2.2,1.7,3.9,3.9,6.2,5.6l6.2,5.6
	c33.6,28.6,71.1,51,111.4,61.6c10.1,2.8,20.2,4.5,30.2,6.2s20.2,1.7,30.2,1.7c5,0,10.1-0.6,15.1-0.6l7.3-0.6c2.2,0,5-0.6,7.3-1.1
	c10.1-1.7,19.6-3.9,28.6-6.7c9.5-3.4,17.9-7.3,26.9-11.8l6.2-3.4l6.2-3.9c2.2-1.1,3.9-2.8,5.6-3.9c1.1-0.6,1.7-1.1,2.8-2.2l2.8-2.2
	c14.6-11.8,26.9-27.4,35.8-44.2c9-16.8,14-35.3,15.1-53.2v-3.4v-3.4v-3.4v-3.4l-0.6-7.3l-1.1-6.7l-1.1-3.4l-3.4-10.1
	c-1.1-4.5-3.4-8.4-5-12.9c-3.9-8.4-9-16.2-15.1-23.5c-1.7-1.7-2.8-3.4-4.5-5l-5-5c-3.4-2.8-6.7-6.2-10.6-9l-2.8-2.2l-5.6-3.4
	c-0.6-0.6-1.1-0.6-1.7-1.1l-1.7-0.6c-2.2-1.1-3.9-2.2-6.2-2.8c-2.2-0.6-3.9-1.7-6.2-2.2c-8.4-3.4-17.4-5-26.3-5c-4.5,0-9,0-13.4,0.6
	c-2.2,0-4.5,0.6-6.7,1.1c-1.1,0-2.2,0.6-3.4,0.6s-2.2,0.6-3.4,1.1c-8.4,2.8-16.2,6.2-23,11.8c-0.6,0.6-1.7,1.1-2.2,2.2l-2.2,2.2
	c-0.6,0.6-1.1,1.7-2.2,2.2c-0.6,0.6-1.1,1.7-2.2,2.2c-1.1,1.7-2.8,3.4-3.4,5.6l-1.7,2.8l-1.1,2.8c-3.9,7.8-5.6,17.4-5,25.8
	c0.6,4.5,0.6,9,2.2,12.9c0.6,2.2,1.7,3.9,2.2,6.2c0.6,1.1,1.1,1.7,1.7,2.8s1.1,1.7,1.7,2.8c4.5,7.3,11.8,13.4,20.2,16.2
	c3.9,1.7,8.4,2.2,12.9,2.2c2.2,0,3.9-0.6,6.2-0.6c2.2-0.6,4.5-1.1,6.2-2.2c7.8-3.9,15.1-11.8,16.2-21.3v-0.6c0.6-3.4,3.4-5.6,6.7-5
	c2.8,0.6,5,2.8,5,5.6c0,3.4,0,7.3-0.6,10.6s-1.7,6.7-3.4,10.1c-1.7,3.4-3.4,6.2-5.6,9c-2.2,2.8-5,5-7.8,7.3
	c-2.8,2.2-6.2,3.9-9.5,5.6c-3.4,1.7-7.3,2.8-10.6,3.4c-7.3,1.7-14.6,1.7-21.8,0c-14.6-2.8-27.4-10.1-37.5-21.3
	c-1.1-1.1-2.2-2.8-3.4-4.5c-1.1-1.7-2.2-2.8-3.4-4.5c-1.7-3.4-3.9-6.2-5-9.5c-3.4-6.7-5-14-6.7-20.7c-0.6-3.4-1.1-7.3-1.1-10.6v-5.6
	V263c0-1.7,0-3.4,0.6-5.6l0.6-5.6l1.1-5.6l1.1-5.6l1.7-5c0.6-1.7,1.1-3.4,2.2-5c1.1-3.4,3.4-6.7,5-10.1c1.1-1.7,2.2-3.4,2.8-5
	c1.1-1.7,2.2-3.4,3.4-4.5l3.4-4.5c1.1-1.7,2.8-2.8,3.9-3.9c10.1-10.6,23-19,36.4-24.1c13.4-5.6,27.4-8.4,42-9c7.3,0,14.6,0,21.3,0.6
	c3.4,0.6,7.3,1.1,10.6,1.7c1.7,0.6,3.4,0.6,5,1.1c1.7,0.6,3.4,0.6,5,1.1l10.1,3.4c3.4,1.1,6.7,2.8,10.1,3.9l2.2,1.1
	c0.6,0.6,1.7,0.6,2.2,1.1l4.5,2.2l9,5.6c6.2,3.9,11.8,7.8,17.4,12.3c2.8,2.2,5,4.5,7.8,7.3c2.8,2.2,5,5,7.3,7.8
	c9.5,10.6,17.9,21.8,24.6,34.2c3.4,6.2,6.2,12.3,9,19l5,15.1l1.1,5.6c3.9,13.4,5,28,5,42.6c0,3.4,0,7.3-0.6,10.6
	c-0.6,3.4-0.6,7.3-1.1,10.6l-1.7,10.6c-0.6,3.4-1.7,6.7-2.2,10.1c-3.4,13.4-8.4,26.9-14.6,39.2c-6.2,12.3-14,24.1-22.4,34.7
	c-8.4,10.6-18.5,20.7-29.1,29.7l-3.9,3.4c-1.1,1.1-2.8,2.2-3.9,3.4c-2.8,2.2-5.6,4.5-8.4,6.2l-9,5.6c-2.8,1.7-6.2,3.4-9,5
	c-12.3,6.7-24.6,11.8-37.5,15.7c-25.8,7.8-53.2,11.8-79.5,10.1c-13.4-0.6-26.3-2.2-39.2-4.5c-12.9-2.8-25.8-6.2-38.1-10.6
	c-12.3-4.5-24.1-10.1-35.3-16.2c-2.8-1.7-5.6-2.8-8.4-4.5l-8.4-5c-5.6-3.4-10.6-6.7-15.7-10.6c-20.7-15.1-39.2-32.5-54.9-51
	c-16.2-19-30.2-39.2-40.9-61.6c-10.6-22.4-18.5-46.5-20.2-71.1c0-3.4,2.2-6.2,5.6-6.2C118.7,287.1,121,288.8,122.1,291L122.1,291z"
	/>
</svg>
